<?xml version="1.0" standalone="no"?>
<!DOCTYPE svg PUBLIC "-//W3C//DTD SVG 20010904//EN"
 "http://www.w3.org/TR/2001/REC-SVG-20010904/DTD/svg10.dtd">
<svg version="1.0" xmlns="http://www.w3.org/2000/svg"
 width="800.000000pt" height="600.000000pt" viewBox="0 0 800.000000 600.000000"
 preserveAspectRatio="xMidYMid meet">

<g transform="translate(0.000000,600.000000) scale(0.100000,-0.100000)"
fill="#000000" stroke="none">
<path d="M4198 5049 c-823 -73 -1659 -438 -2205 -962 -290 -279 -484 -594
-568 -926 -33 -129 -31 -146 6 -36 39 119 142 328 218 440 172 258 415 490
735 704 603 403 1275 617 2001 640 l210 6 11 73 11 72 -166 -1 c-91 -1 -205
-5 -253 -10z"/>
<path d="M4635 4640 c-377 -27 -752 -127 -1150 -305 l-140 -62 -8 -44 c-4 -24
-6 -56 -5 -71 l3 -27 131 59 c466 207 873 301 1299 302 362 0 652 -65 943
-211 483 -243 806 -634 908 -1101 10 -45 19 -150 23 -260 l6 -185 13 91 c16
120 15 307 -3 424 -46 305 -180 569 -414 813 -392 409 -986 623 -1606 577z"/>
<path d="M3182 3860 c-294 -79 -531 -375 -492 -613 27 -170 151 -302 338 -363
82 -27 97 -29 247 -28 164 1 173 2 368 59 67 19 81 39 46 68 -27 21 -36 21
-193 -13 -114 -24 -261 -29 -351 -10 -93 19 -164 57 -232 125 -74 74 -99 141
-90 235 7 64 53 183 93 241 102 148 323 262 473 245 103 -12 194 -71 243 -158
12 -21 25 -38 29 -38 4 0 13 24 19 53 15 67 4 98 -49 133 -116 76 -305 103
-449 64z"/>
<path d="M4211 3293 c-112 -224 -285 -624 -303 -702 -11 -48 -10 -53 11 -75
25 -26 53 -37 69 -27 11 6 362 832 362 851 0 15 -35 30 -69 30 -28 0 -34 -6
-70 -77z"/>
<path d="M4610 3174 c-212 -57 -384 -306 -367 -533 14 -186 154 -328 412 -418
93 -33 222 -41 296 -20 114 33 219 138 290 290 100 215 72 369 -96 526 -147
137 -366 200 -535 155z m274 -129 c87 -30 193 -100 238 -157 63 -77 82 -124
82 -208 1 -66 -4 -85 -31 -141 -64 -130 -164 -207 -295 -228 -187 -31 -432 97
-484 251 -36 110 4 288 88 383 99 112 256 152 402 100z"/>
<path d="M1382 2945 c0 -16 2 -22 5 -12 2 9 2 23 0 30 -3 6 -5 -1 -5 -18z"/>
<path d="M1365 2815 c-44 -415 67 -752 346 -1050 171 -182 464 -368 769 -488
160 -63 314 -110 525 -162 953 -233 1759 -210 2408 68 607 261 1037 737 1182
1307 35 137 31 144 -11 20 -206 -611 -741 -1083 -1457 -1285 -287 -80 -465
-105 -811 -112 -378 -8 -641 18 -1076 107 -906 184 -1483 526 -1733 1026 -76
152 -116 316 -126 523 l-7 136 -9 -90z"/>
<path d="M3682 2670 c-28 -27 -28 -46 1 -65 62 -40 117 -24 117 35 0 50 -76
69 -118 30z"/>
</g>
</svg>
